<svg width="352" height="174" viewBox="0 0 352 174" fill="none" xmlns="http://www.w3.org/2000/svg">
<g filter="url(#filter0_d_939_1751)">
<rect x="8" y="8" width="328" height="150" rx="20" fill="white"/>
</g>
<path d="M315 76.6055L321 83.5822L315 90.559" stroke="#363B48" stroke-linecap="round" stroke-linejoin="round"/>
<path d="M39.4674 51.785V54.3976C40.8881 54.3101 42.3223 54.1754 43.6758 53.9734L43.8576 55.7645C40.0195 56.4917 35.9054 56.5254 32.8686 56.5254L32.5925 54.566C33.8921 54.566 35.4273 54.5592 37.0433 54.5054V51.785H39.4674ZM32.9359 50.4922C35.5485 49.8054 36.8279 48.1827 36.9827 46.4185H33.4881V44.4725H37.0433V42.5737H39.4674V44.4725H43.0496V46.4185H39.5078C39.6626 48.0951 40.9622 49.6708 43.5815 50.3104L42.4772 52.1891C40.4504 51.6773 39.0432 50.5461 38.2621 49.1051C37.5079 50.6202 36.1209 51.7985 34.0739 52.3305L32.9359 50.4922ZM44.6588 59.7978V42.4121H47.0761V59.7978H44.6588ZM65.222 55.7982V57.7778H49.3715V55.7982H56.078V52.3978H58.4818V55.7982H65.222ZM49.9034 51.105C53.8425 50.6269 55.8154 48.6607 56.0241 46.7417H50.7384V44.7958H56.078V42.6411H58.4818V44.7958H63.8416V46.7417H58.5424C58.7377 48.6607 60.7173 50.6269 64.6631 51.105L63.7743 52.9971C60.6769 52.5998 58.4347 51.307 57.2698 49.5226C56.1184 51.307 53.8964 52.5998 50.8057 52.9971L49.9034 51.105ZM86.5692 55.7443V57.7239H70.7187V55.7443H74.2537V51.4888C72.9138 50.6808 72.1058 49.4485 72.1125 47.9201C72.1058 45.119 74.853 43.2673 78.6102 43.2673C82.3675 43.2673 85.1417 45.119 85.1417 47.9201C85.1417 49.4283 84.3539 50.6404 83.0476 51.4484V55.7443H86.5692ZM74.5029 47.9201C74.5029 49.6236 76.1323 50.6673 78.6102 50.674C81.0679 50.6673 82.7378 49.6236 82.7446 47.9201C82.7378 46.1828 81.0679 45.1728 78.6102 45.1863C76.1323 45.1728 74.5029 46.1828 74.5029 47.9201ZM76.6576 55.7443H80.5899V52.3709C79.9704 52.4853 79.3105 52.5527 78.6102 52.5527C77.9234 52.5527 77.2703 52.4921 76.6576 52.3709V55.7443ZM103.564 44.5803V46.5532H101.321V48.3375H103.564V50.3374H101.321V52.5527H98.8839V42.4121H101.321V44.5803H103.564ZM87.6929 47.5632C87.6794 45.0988 89.7331 43.3615 92.44 43.3683C95.1266 43.3615 97.1601 45.0988 97.1736 47.5632C97.1601 50.0142 95.1266 51.7581 92.44 51.7648C89.7331 51.7581 87.6794 50.0142 87.6929 47.5632ZM89.6995 56.3436C89.6927 54.1889 92.0158 52.9028 95.6316 52.9028C99.2071 52.9028 101.483 54.1889 101.483 56.3436C101.483 58.4781 99.2071 59.7574 95.6316 59.7507C92.0158 59.7574 89.6927 58.4781 89.6995 56.3436ZM90.0698 47.5632C90.0563 48.9166 91.0798 49.7112 92.44 49.7112C93.7732 49.7112 94.7967 48.9166 94.8034 47.5632C94.7967 46.2367 93.7799 45.4018 92.44 45.4085C91.0798 45.4018 90.0563 46.2367 90.0698 47.5632ZM92.1302 56.3436C92.1235 57.3603 93.3624 57.8249 95.6316 57.8249C97.8873 57.8249 99.0859 57.3603 99.0859 56.3436C99.0859 55.3268 97.8873 54.8286 95.6316 54.8218C93.3624 54.8286 92.1235 55.3268 92.1302 56.3436ZM113.201 52.2833V54.135H120.42V52.2833H122.823V59.5622H110.811V52.2833H113.201ZM108.919 51.1386V49.2061H120.076C120.413 47.5228 120.46 46.23 120.473 45.0651H110.858V43.1191H122.897V44.5129C122.897 45.826 122.897 47.2333 122.487 49.2061H124.769V51.1386H108.919ZM113.201 57.596H120.42V55.9867H113.201V57.596ZM130.546 43.6376C132.101 43.6376 133.394 44.4927 134.189 45.9808H137.986V42.4121H140.39V59.7978H137.986V53.3001H134.364C133.596 55.0171 132.223 56.0002 130.546 56.0002C127.913 56.0002 126.034 53.6165 126.041 49.8054C126.034 46.0347 127.913 43.6376 130.546 43.6376ZM128.371 49.8054C128.364 52.3978 129.253 53.7983 130.546 53.7983C131.852 53.7983 132.721 52.3978 132.728 49.8054C132.721 47.24 131.852 45.8327 130.546 45.8327C129.253 45.8327 128.364 47.24 128.371 49.8054ZM134.862 47.9403C134.97 48.5126 135.03 49.1388 135.03 49.8054C135.03 50.3508 134.99 50.8693 134.916 51.3541H137.986V47.9403H134.862ZM161.623 42.4391V55.0912H159.185V42.4391H161.623ZM147.052 50.8087C149.967 49.8324 151.226 47.4218 151.233 45.0584V43.3885H153.751V45.0584C153.738 47.3612 154.97 49.6034 157.818 50.5124L156.58 52.4247C154.62 51.7716 153.273 50.4788 152.506 48.8223C151.731 50.6067 150.344 52.0342 148.318 52.7277L147.052 50.8087ZM150.008 59.4544V53.8589H152.465V57.495H162.081V59.4544H150.008ZM173.843 44.2301V46.1424H170.355C170.376 47.9201 171.682 49.7246 174.469 50.4451L173.332 52.317C171.359 51.812 169.978 50.7212 169.184 49.3139C168.43 50.9164 167.043 52.1823 164.989 52.7681L163.851 50.8693C166.625 50.0748 167.911 48.1086 167.931 46.1424H164.443V44.2301H167.931V42.3515H170.382V44.2301H173.843ZM166.699 56.4446C166.692 54.364 168.975 53.1923 172.651 53.1923C176.341 53.1923 178.617 54.364 178.624 56.4446C178.617 58.5387 176.341 59.7574 172.651 59.7507C168.975 59.7574 166.692 58.5387 166.699 56.4446ZM169.116 56.4446C169.11 57.394 170.355 57.899 172.651 57.9057C174.995 57.899 176.207 57.394 176.213 56.4446C176.207 55.5154 174.995 55.044 172.651 55.0508C170.355 55.044 169.11 55.5154 169.116 56.4446ZM173.332 49.0176V47.0717H176.153V42.4121H178.577V52.9028H176.153V49.0176H173.332ZM187.383 46.3444C187.377 49.6034 188.69 52.7749 191.572 54.0205L190.104 55.953C188.171 55.0238 186.878 53.3001 186.158 51.1588C185.411 53.428 184.077 55.2932 182.098 56.2695L180.576 54.2966C183.539 52.9499 184.899 49.6034 184.912 46.3444V43.7521H187.383V46.3444ZM189.646 49.8324V47.8729H193.04V42.4121H195.443V59.7978H193.04V49.8324H189.646ZM216.777 42.4391V55.1114H214.353V51.004H210.38C209.545 51.886 208.347 52.418 207 52.418C204.374 52.418 202.374 50.5192 202.388 47.9403C202.374 45.3344 204.374 43.4423 207 43.4423C208.347 43.4423 209.552 43.9743 210.387 44.8631H214.353V42.4391H216.777ZM204.691 47.9403C204.691 49.3947 205.647 50.2633 207 50.27C208.279 50.2633 209.263 49.3947 209.276 47.9403C209.263 46.4791 208.279 45.6038 207 45.6038C205.647 45.6038 204.691 46.4791 204.691 47.9403ZM205.276 59.4544V53.8387H207.7V57.495H217.188V59.4544H205.276ZM211.444 46.809C211.538 47.1659 211.586 47.543 211.586 47.9403C211.586 48.3241 211.538 48.7011 211.451 49.0513H214.353V46.809H211.444ZM223.274 52.8153V54.2899H230.412V52.8153H232.829V59.5622H220.87V52.8153H223.274ZM219.025 51.9399V49.9872H234.835V51.9399H219.025ZM219.793 47.3208C223.671 46.8562 225.671 44.9641 225.678 43.1797V42.5939H228.183V43.1797C228.176 44.917 230.176 46.8764 234.041 47.3208L233.186 49.2196C230.203 48.8425 228.035 47.5969 226.93 45.927C225.806 47.6036 223.631 48.8425 220.682 49.2196L219.793 47.3208ZM223.274 57.6499H230.412V56.1281H223.274V57.6499Z" fill="#363B48"/>
<path d="M177.846 112.576H186.725V128.114H197.453" stroke="#B2B2B2" stroke-width="2" stroke-linecap="round" stroke-linejoin="round"/>
<path d="M248.877 112.576H239.998V128.114H229.269" stroke="#B2B2B2" stroke-width="2" stroke-linecap="round" stroke-linejoin="round"/>
<rect x="139" y="105.178" width="43.6547" height="14.0583" rx="3" fill="#DEECFF"/>
<rect x="191.533" y="121.455" width="43.6547" height="14.0583" rx="3" fill="#8AC9FE"/>
<rect x="244.068" y="105.178" width="43.6547" height="14.0583" rx="3" fill="#7997C2"/>
<path d="M144.18 110.357H178.216" stroke="white" stroke-width="2" stroke-linecap="round" stroke-linejoin="round"/>
<path d="M144.18 114.426H178.216" stroke="white" stroke-width="2" stroke-linecap="round" stroke-linejoin="round"/>
<path d="M249.246 110.729H283.282" stroke="white" stroke-width="2" stroke-linecap="round" stroke-linejoin="round"/>
<path d="M249.246 114.797H283.282" stroke="white" stroke-width="2" stroke-linecap="round" stroke-linejoin="round"/>
<path d="M196.713 126.637H230.749" stroke="white" stroke-width="2" stroke-linecap="round" stroke-linejoin="round"/>
<path d="M196.713 130.705H230.749" stroke="white" stroke-width="2" stroke-linecap="round" stroke-linejoin="round"/>
<circle cx="291.422" cy="112.578" r="11.8285" fill="#3FA3FF" stroke="#3FA3FF" stroke-width="1.5"/>
<path d="M286.125 113.24L289.435 116.55L297.379 107.943" stroke="white" stroke-width="3" stroke-linecap="round" stroke-linejoin="round"/>
<path d="M42.0938 74.5078V82.1953H40.9805V74.5078H42.0938ZM33.4453 79.8281C35.0918 79.2188 36.0645 77.707 36.0703 76.125V75.082H37.207V76.125C37.2012 77.6602 38.1738 79.0664 39.7969 79.6289L39.2227 80.5195C38.0098 80.0684 37.1133 79.1777 36.6445 78.041C36.1816 79.2598 35.2734 80.2324 34.043 80.707L33.4453 79.8281ZM35.2266 84.7734V81.4688H36.3516V83.8711H42.4102V84.7734H35.2266ZM47.1975 76.7344C47.1975 77.9707 48.2112 79.125 49.8108 79.5703L49.2834 80.4375C48.0647 80.0918 47.1506 79.3418 46.6702 78.3691C46.2131 79.4531 45.2991 80.3145 44.0452 80.707L43.5178 79.8516C45.1116 79.3418 46.0959 78.0879 46.0959 76.7344V76.6055H43.8108V75.7148H46.0959V74.4492H47.2092V75.7148H49.4827V76.6055H47.1975V76.7344ZM45.2053 83.0273C45.1995 81.7969 46.553 81.0996 48.7561 81.0938C50.9534 81.0996 52.301 81.7969 52.3069 83.0273C52.301 84.2637 50.9534 84.9785 48.7561 84.9727C46.553 84.9785 45.1995 84.2637 45.2053 83.0273ZM46.3069 83.0273C46.301 83.707 47.2151 84.1113 48.7561 84.1172C50.2971 84.1113 51.1995 83.707 51.2053 83.0273C51.1995 82.3477 50.2971 81.9609 48.7561 81.9609C47.2151 81.9609 46.301 82.3477 46.3069 83.0273ZM49.1545 78.3516V77.4375H51.1584V74.4961H52.2717V80.8594H51.1584V78.3516H49.1545ZM57.4341 77.168C57.4341 79.0898 58.5122 81.0059 60.1177 81.7266L59.438 82.6172C58.2485 82.0195 57.3462 80.8359 56.8833 79.4004C56.4204 80.9121 55.5063 82.1895 54.2934 82.8164L53.5903 81.9141C55.2192 81.1348 56.3032 79.1133 56.3091 77.168V75.375H57.4341V77.168ZM58.9575 78.8906V77.9883H61.3013V74.4961H62.4028V85.0195H61.3013V78.8906H58.9575ZM72.8152 74.4961V84.9961H71.7488V74.4961H72.8152ZM63.8972 79.0312C63.8972 76.7578 64.7878 75.334 66.1589 75.3398C67.4363 75.334 68.2976 76.5469 68.4265 78.5156H69.6159V74.6953H70.6823V84.4805H69.6159V79.418H68.4323C68.3327 81.4688 67.4597 82.7402 66.1589 82.7344C64.7878 82.7402 63.8972 81.3105 63.8972 79.0312ZM64.9284 79.0312C64.9284 80.7012 65.403 81.6855 66.1589 81.6797C66.9323 81.6855 67.4128 80.7012 67.4128 79.0312C67.4128 77.3555 66.9323 76.377 66.1589 76.3828C65.403 76.377 64.9284 77.3555 64.9284 79.0312ZM86.1867 78.7969V79.6875H76.6008V78.7969H86.1867ZM77.7492 81.375V80.5195H84.968V83.0625H78.8508V84H85.2609V84.8789H77.7609V82.2422H83.8664V81.375H77.7492ZM77.8547 78.0352V74.8008H84.9445V75.7031H78.968V77.1445H85.05V78.0352H77.8547ZM89.5795 75.2812C91.0092 75.2871 92.0463 76.4941 92.2163 78.4336H94.3842V74.4961H95.4858V85.0195H94.3842V79.3359H92.228C92.1049 81.3867 91.0444 82.6582 89.5795 82.6523C88.0151 82.6582 86.9077 81.2285 86.9194 78.9609C86.9077 76.7168 88.0151 75.2871 89.5795 75.2812ZM87.9741 78.9609C87.9799 80.6309 88.6303 81.6562 89.5795 81.6562C90.5288 81.6562 91.1791 80.6309 91.185 78.9609C91.1791 77.3145 90.5288 76.2832 89.5795 76.2773C88.6303 76.2832 87.9799 77.3145 87.9741 78.9609ZM105.043 74.4961V78.6797H106.672V79.6055H105.043V84.9844H103.929V74.4961H105.043ZM96.8747 82.1836C99.5055 80.8711 100.935 78.9727 101.164 76.5234H97.402V75.5977H102.3C102.289 78.6328 100.953 81.3457 97.4958 83.0508L96.8747 82.1836ZM115.49 77.5664V78.457H108.26V74.8711H109.361V77.5664H115.49ZM106.982 80.6719V79.7812H116.592V80.6719H106.982ZM108.178 84.75V81.668H109.291V83.8359H115.56V84.75H108.178ZM128.803 74.4961V84.9961H127.737V79.6172H126.389V84.457H125.346V74.707H126.389V78.7031H127.737V74.4961H128.803ZM120.307 82.3242V75.7383H121.42V81.3457C122.387 81.334 123.448 81.2578 124.643 81.0234L124.76 81.9961C123.319 82.2539 122.118 82.3301 120.987 82.3242H120.307ZM139.52 79.6172V80.5195H129.946V79.6172H132.243V78.2051C131.428 77.877 130.971 77.3496 130.977 76.6523C130.971 75.4043 132.419 74.6777 134.727 74.6836C137.03 74.6777 138.471 75.4043 138.477 76.6523C138.471 77.3496 138.014 77.877 137.2 78.2109V79.6172H139.52ZM131.083 83.0977C131.083 81.8965 132.442 81.2344 134.727 81.2344C136.983 81.2344 138.342 81.8965 138.348 83.0977C138.342 84.3105 136.983 84.9727 134.727 84.9727C132.442 84.9727 131.083 84.3105 131.083 83.0977ZM132.126 76.6523C132.12 77.3555 133.092 77.748 134.727 77.7539C136.35 77.748 137.335 77.3555 137.329 76.6523C137.335 75.9492 136.35 75.5449 134.727 75.5391C133.092 75.5449 132.12 75.9492 132.126 76.6523ZM132.208 83.0977C132.202 83.7539 133.122 84.1289 134.727 84.1172C136.309 84.1289 137.235 83.7539 137.235 83.0977C137.235 82.4531 136.309 82.0898 134.727 82.0898C133.122 82.0898 132.202 82.4531 132.208 83.0977ZM133.368 79.6172H136.098V78.498C135.688 78.5625 135.225 78.5977 134.727 78.5977C134.235 78.5977 133.778 78.5625 133.368 78.5039V79.6172ZM148.275 75.5039V82.4062H143.353V75.5039H148.275ZM144.454 81.5039H147.196V76.3828H144.454V81.5039ZM150.349 85.0195V74.4961H151.462V85.0195H150.349ZM161.617 74.4961V85.0195H160.503V74.4961H161.617ZM153.484 76.3477V75.4453H158.406V79.2773H154.632V81.5742C156.337 81.5684 157.82 81.4863 159.577 81.1992L159.683 82.1133C157.826 82.4238 156.244 82.4941 154.386 82.5H153.495V78.3867H157.269V76.3477H153.484ZM173.969 74.4961V76.6875H175.492V77.6133H173.969V79.8047H172.855V74.4961H173.969ZM165.883 77.2031C165.871 75.8145 167.049 74.8652 168.637 74.8594C170.23 74.8652 171.39 75.8145 171.39 77.2031C171.39 78.5801 170.23 79.5469 168.637 79.5469C167.049 79.5469 165.871 78.5801 165.883 77.2031ZM166.961 77.2031C166.955 78.0586 167.67 78.6562 168.637 78.6562C169.603 78.6562 170.312 78.0586 170.312 77.2031C170.312 76.3477 169.603 75.7676 168.637 75.7734C167.67 75.7676 166.955 76.3477 166.961 77.2031ZM167.183 81.1523V80.2852H173.969V82.9453H168.297V83.9766H174.332V84.8672H167.207V82.1133H172.867V81.1523H167.183ZM178.662 75.2812C180.232 75.2871 181.352 76.7168 181.357 78.9609C181.352 81.2285 180.232 82.6582 178.662 82.6523C177.092 82.6582 175.973 81.2285 175.979 78.9609C175.973 76.7168 177.092 75.2871 178.662 75.2812ZM177.045 78.9609C177.039 80.6309 177.707 81.6562 178.662 81.6562C179.635 81.6562 180.291 80.6309 180.291 78.9609C180.291 77.3145 179.635 76.2832 178.662 76.2773C177.707 76.2832 177.039 77.3145 177.045 78.9609ZM182.916 84.9961V74.4961H184.029V78.6094H185.717V79.5469H184.029V84.9961H182.916ZM195.59 82.7695V83.6953H185.981V82.7695H190.211V80.6133H187.082V75.2109H188.196V77.0156H193.352V75.2109H194.453V80.6133H191.313V82.7695H195.59ZM188.196 79.7109H193.352V77.918H188.196V79.7109ZM204.842 74.4961V84.9961H203.717V74.4961H204.842ZM196.217 82.1836C199.006 80.8535 200.372 78.9609 200.588 76.5117H196.721V75.6211H201.713C201.713 78.6973 200.407 81.3574 196.803 83.0859L196.217 82.1836Z" fill="#92939F"/>
<defs>
<filter id="filter0_d_939_1751" x="0" y="0" width="352" height="174" filterUnits="userSpaceOnUse" color-interpolation-filters="sRGB">
<feFlood flood-opacity="0" result="BackgroundImageFix"/>
<feColorMatrix in="SourceAlpha" type="matrix" values="0 0 0 0 0 0 0 0 0 0 0 0 0 0 0 0 0 0 127 0" result="hardAlpha"/>
<feMorphology radius="2" operator="dilate" in="SourceAlpha" result="effect1_dropShadow_939_1751"/>
<feOffset dx="4" dy="4"/>
<feGaussianBlur stdDeviation="5"/>
<feComposite in2="hardAlpha" operator="out"/>
<feColorMatrix type="matrix" values="0 0 0 0 0.617188 0 0 0 0 0.617188 0 0 0 0 0.617188 0 0 0 0.1 0"/>
<feBlend mode="normal" in2="BackgroundImageFix" result="effect1_dropShadow_939_1751"/>
<feBlend mode="normal" in="SourceGraphic" in2="effect1_dropShadow_939_1751" result="shape"/>
</filter>
</defs>
</svg>
