<svg width="352" height="174" viewBox="0 0 352 174" fill="none" xmlns="http://www.w3.org/2000/svg">
<g filter="url(#filter0_d_939_1751)">
<rect x="8" y="8" width="328" height="150" rx="20" fill="white"/>
</g>
<path d="M315 76.6055L321 83.5822L315 90.559" stroke="#363B48" stroke-linecap="round" stroke-linejoin="round"/>
<path d="M177.846 112.576H186.725V128.114H197.453" stroke="#B2B2B2" stroke-width="2" stroke-linecap="round" stroke-linejoin="round"/>
<path d="M248.877 112.576H239.998V128.114H229.269" stroke="#B2B2B2" stroke-width="2" stroke-linecap="round" stroke-linejoin="round"/>
<rect x="139" y="105.178" width="43.6547" height="14.0583" rx="3" fill="#DEECFF"/>
<rect x="191.533" y="121.455" width="43.6547" height="14.0583" rx="3" fill="#8AC9FE"/>
<rect x="244.068" y="105.178" width="43.6547" height="14.0583" rx="3" fill="#7997C2"/>
<path d="M144.18 110.357H178.216" stroke="white" stroke-width="2" stroke-linecap="round" stroke-linejoin="round"/>
<path d="M144.18 114.426H178.216" stroke="white" stroke-width="2" stroke-linecap="round" stroke-linejoin="round"/>
<path d="M249.246 110.729H283.282" stroke="white" stroke-width="2" stroke-linecap="round" stroke-linejoin="round"/>
<path d="M249.246 114.797H283.282" stroke="white" stroke-width="2" stroke-linecap="round" stroke-linejoin="round"/>
<path d="M196.713 126.637H230.749" stroke="white" stroke-width="2" stroke-linecap="round" stroke-linejoin="round"/>
<path d="M196.713 130.705H230.749" stroke="white" stroke-width="2" stroke-linecap="round" stroke-linejoin="round"/>
<circle cx="291.422" cy="112.578" r="11.8285" fill="#3FA3FF" stroke="#3FA3FF" stroke-width="1.5"/>
<path d="M286.125 113.24L289.435 116.55L297.379 107.943" stroke="white" stroke-width="3" stroke-linecap="round" stroke-linejoin="round"/>
<defs>
<filter id="filter0_d_939_1751" x="0" y="0" width="352" height="174" filterUnits="userSpaceOnUse" color-interpolation-filters="sRGB">
<feFlood flood-opacity="0" result="BackgroundImageFix"/>
<feColorMatrix in="SourceAlpha" type="matrix" values="0 0 0 0 0 0 0 0 0 0 0 0 0 0 0 0 0 0 127 0" result="hardAlpha"/>
<feMorphology radius="2" operator="dilate" in="SourceAlpha" result="effect1_dropShadow_939_1751"/>
<feOffset dx="4" dy="4"/>
<feGaussianBlur stdDeviation="5"/>
<feComposite in2="hardAlpha" operator="out"/>
<feColorMatrix type="matrix" values="0 0 0 0 0.617188 0 0 0 0 0.617188 0 0 0 0 0.617188 0 0 0 0.1 0"/>
<feBlend mode="normal" in2="BackgroundImageFix" result="effect1_dropShadow_939_1751"/>
<feBlend mode="normal" in="SourceGraphic" in2="effect1_dropShadow_939_1751" result="shape"/>
</filter>
</defs>
</svg>
