<svg width="31" height="28" viewBox="0 0 31 28" fill="none" xmlns="http://www.w3.org/2000/svg">
<path d="M22.2441 13.7818C23.0436 15.4518 23.6736 17.1977 24.1249 18.9934C27.7136 17.9377 29.9991 16.2026 29.9991 14.095C29.9991 11.9462 27.6272 10.1828 23.916 9.13477" stroke="#363B48" stroke-width="2" stroke-linecap="round" stroke-linejoin="round"/>
<path d="M8.7343 13.7812C8.03876 12.2873 7.47794 10.7343 7.05854 9.14062C3.35767 10.1886 1 11.9495 1 14.0944C1 16.1982 3.27775 17.9319 6.85615 18.9928" stroke="#363B48" stroke-width="2" stroke-linecap="round" stroke-linejoin="round"/>
<path d="M11.917 8.26417C12.9651 6.73762 14.1634 5.31989 15.4941 4.03222C12.7871 1.45412 10.1407 0.341672 8.31538 1.39483C6.45399 2.46861 6.11239 5.40506 7.06113 9.14331" stroke="#363B48" stroke-width="2" stroke-linecap="round" stroke-linejoin="round"/>
<path d="M18.6749 19.9661C17.7292 21.3147 16.6654 22.5765 15.4961 23.7366C18.2547 26.4165 20.9617 27.5831 22.8192 26.5106C24.6406 25.4587 25.0028 22.6202 24.1276 18.9941" stroke="#363B48" stroke-width="2" stroke-linecap="round" stroke-linejoin="round"/>
<path d="M12.3077 19.9634C10.462 19.821 8.63533 19.4936 6.85504 18.9863C5.97332 22.6227 6.33941 25.469 8.15955 26.5234C10.0197 27.5972 12.7331 26.4254 15.4968 23.7352" stroke="#363B48" stroke-width="2" stroke-linecap="round" stroke-linejoin="round"/>
<path d="M19.059 8.26168C20.7003 8.40709 22.3254 8.69872 23.9149 9.13308C24.8572 5.40386 24.5143 2.47643 22.6568 1.39878C20.8341 0.352072 18.1954 1.45292 15.4961 4.03102" stroke="#363B48" stroke-width="2" stroke-linecap="round" stroke-linejoin="round"/>
<path d="M19.059 8.26453C17.9221 8.15625 16.7387 8.0918 15.4961 8.0918C14.2534 8.0918 13.0611 8.15625 11.919 8.26582C11.3324 9.11015 10.7588 10.0086 10.2058 10.9638C9.6528 11.919 9.17457 12.8574 8.73242 13.783C9.20679 14.8219 9.74562 15.8828 10.3644 16.9553C10.9831 18.0278 11.6379 19.032 12.2979 19.9652C13.3292 20.0529 14.3875 20.1019 15.4909 20.1019C16.5943 20.1019 17.6501 20.0529 18.6697 19.9665C19.3323 19.0358 19.9807 18.0407 20.6033 16.9682C21.2259 15.8957 21.7634 14.8271 22.2404 13.783C21.8034 12.8535 21.3135 11.9061 20.7618 10.947C20.2101 9.98799 19.6429 9.10499 19.059 8.26453Z" stroke="#363B48" stroke-width="2" stroke-linecap="round" stroke-linejoin="round"/>
<path d="M13.5605 14.0957C13.5605 14.6085 13.7643 15.1003 14.1269 15.4629C14.4895 15.8255 14.9813 16.0293 15.4941 16.0293C16.0069 16.0293 16.4988 15.8255 16.8614 15.4629C17.224 15.1003 17.4277 14.6085 17.4277 14.0957C17.4277 13.5829 17.224 13.0911 16.8614 12.7284C16.4988 12.3658 16.0069 12.1621 15.4941 12.1621C14.9813 12.1621 14.4895 12.3658 14.1269 12.7284C13.7643 13.0911 13.5605 13.5829 13.5605 14.0957Z" stroke="#363B48" stroke-width="2" stroke-linecap="round" stroke-linejoin="round"/>
</svg>
