<svg width="79" height="60" viewBox="0 0 79 60" fill="none" xmlns="http://www.w3.org/2000/svg">
<rect x="6.42773" width="63.2143" height="48.2143" rx="6" fill="#A5D0FE"/>
<path d="M23.1306 43.8593C24.3447 44.6479 24.3447 46.4252 23.1306 47.2138L9.51658 56.0564C8.18604 56.9206 6.42718 55.9657 6.42718 54.3791L6.42718 36.694C6.42718 35.1074 8.18604 34.1525 9.51659 35.0167L23.1306 43.8593Z" fill="#A5D0FE"/>
<path d="M22 14L58 14" stroke="#6CAEFB" stroke-width="4" stroke-linecap="round"/>
<path d="M22 25L58 25" stroke="#6CAEFB" stroke-width="4" stroke-linecap="round"/>
<path d="M22 36H40" stroke="#6CAEFB" stroke-width="4" stroke-linecap="round"/>
<path d="M67.753 8.97153L74.0121 14.1981L56.1571 35.58L49.6577 37.6603C49.3086 37.7721 48.9611 37.4831 49.0087 37.1197L49.8981 30.3534L67.753 8.97153Z" fill="#D4E9FF"/>
<path d="M74.0117 14.1973L67.7524 8.97037L71.9186 3.98116C72.2726 3.55724 72.9032 3.50055 73.3272 3.85455L78.0514 7.79951C78.4753 8.15351 78.532 8.78413 78.178 9.20805L74.0117 14.1973Z" fill="#4691D3"/>
</svg>
