<svg width="366" height="140" viewBox="0 0 366 140" fill="none" xmlns="http://www.w3.org/2000/svg">
<g filter="url(#filter0_d_1099_1706)">
<rect x="6" y="6" width="346" height="120" rx="20" fill="white"/>
</g>
<rect x="254.428" y="36" width="63.2143" height="48.2143" rx="6" fill="#A5D0FE"/>
<path d="M271.131 79.8593C272.345 80.6479 272.345 82.4252 271.131 83.2138L257.517 92.0564C256.186 92.9206 254.427 91.9657 254.427 90.3791L254.427 72.694C254.427 71.1074 256.186 70.1525 257.517 71.0167L271.131 79.8593Z" fill="#A5D0FE"/>
<path d="M270 50L306 50" stroke="#6CAEFB" stroke-width="4" stroke-linecap="round"/>
<path d="M270 61L306 61" stroke="#6CAEFB" stroke-width="4" stroke-linecap="round"/>
<path d="M270 72H288" stroke="#6CAEFB" stroke-width="4" stroke-linecap="round"/>
<path d="M315.753 44.9715L322.012 50.1981L304.157 71.58L297.658 73.6603C297.309 73.7721 296.961 73.4831 297.009 73.1197L297.898 66.3534L315.753 44.9715Z" fill="#D4E9FF"/>
<path d="M322.012 50.1973L315.752 44.9704L319.919 39.9812C320.273 39.5572 320.903 39.5006 321.327 39.8545L326.051 43.7995C326.475 44.1535 326.532 44.7841 326.178 45.208L322.012 50.1973Z" fill="#4691D3"/>
<defs>
<filter id="filter0_d_1099_1706" x="0" y="0" width="366" height="140" filterUnits="userSpaceOnUse" color-interpolation-filters="sRGB">
<feFlood flood-opacity="0" result="BackgroundImageFix"/>
<feColorMatrix in="SourceAlpha" type="matrix" values="0 0 0 0 0 0 0 0 0 0 0 0 0 0 0 0 0 0 127 0" result="hardAlpha"/>
<feOffset dx="4" dy="4"/>
<feGaussianBlur stdDeviation="5"/>
<feComposite in2="hardAlpha" operator="out"/>
<feColorMatrix type="matrix" values="0 0 0 0 0.641989 0 0 0 0 0.657274 0 0 0 0 0.773006 0 0 0 0.12 0"/>
<feBlend mode="normal" in2="BackgroundImageFix" result="effect1_dropShadow_1099_1706"/>
<feBlend mode="normal" in="SourceGraphic" in2="effect1_dropShadow_1099_1706" result="shape"/>
</filter>
</defs>
</svg>
