<svg width="366" height="140" viewBox="0 0 366 140" fill="none" xmlns="http://www.w3.org/2000/svg">
<g filter="url(#filter0_d_1099_1678)">
<rect x="6" y="6" width="346" height="120" rx="20" fill="white"/>
</g>
<rect x="247.59" y="56.7148" width="76.8211" height="41.4316" rx="6" fill="#A5D0FE"/>
<path d="M247.59 59.8516C247.59 57.6424 249.381 55.8516 251.59 55.8516H320.411C322.62 55.8516 324.411 57.6424 324.411 59.8516V63.62H247.59V59.8516Z" fill="#6CAEFB"/>
<path d="M263.99 44.5898C263.99 41.2761 266.677 38.5898 269.99 38.5898H302.011C305.325 38.5898 308.011 41.2761 308.011 44.5898V98.1477H263.99V44.5898Z" fill="#E6F3FF"/>
<path d="M263.99 40C263.99 37.7909 265.781 36 267.99 36H304.011C306.22 36 308.011 37.7909 308.011 40V48.0842H263.99V40Z" fill="#3095FE"/>
<path d="M298.516 59.6211C298.516 61.8302 296.725 63.6211 294.516 63.6211L277.484 63.6211C275.275 63.6211 273.484 61.8302 273.484 59.6211L273.484 44.6316L298.516 44.6316L298.516 59.6211Z" fill="#3095FE"/>
<path d="M245 93.7891C245 90.4754 247.686 87.7891 251 87.7891H251.947C255.261 87.7891 257.947 90.4754 257.947 93.7891V98.147H245V93.7891Z" fill="#A0D93F"/>
<path d="M308.01 97.2838C308.01 92.04 312.261 87.7891 317.505 87.7891C322.748 87.7891 326.999 92.04 326.999 97.2838V98.147H308.01V97.2838Z" fill="#A0D93F"/>
<path d="M278.664 78.8418C278.664 76.6327 280.455 74.8418 282.664 74.8418H288.475C290.684 74.8418 292.475 76.6327 292.475 78.8418V98.1471H278.664V78.8418Z" fill="#8CC2FE"/>
<path d="M277.801 76.8418C277.801 75.7372 278.696 74.8418 279.801 74.8418H285.569V98.1471H277.801V76.8418Z" fill="#429CFD"/>
<path d="M287.295 74.8418H293.063C294.168 74.8418 295.063 75.7372 295.063 76.8418V98.1471H287.295V74.8418Z" fill="#429CFD"/>
<rect x="283.842" y="44.6309" width="4.31579" height="11.2211" rx="1" fill="#EBF0FE"/>
<rect x="291.609" y="48.084" width="4.31579" height="11.2211" rx="1" transform="rotate(90 291.609 48.084)" fill="#EBF0FE"/>
<rect x="254.494" y="69.6621" width="3.45263" height="10.3579" rx="1.72632" fill="#6CAEFB"/>
<rect x="314.053" y="69.6621" width="3.45263" height="10.3579" rx="1.72632" fill="#6CAEFB"/>
<defs>
<filter id="filter0_d_1099_1678" x="0" y="0" width="366" height="140" filterUnits="userSpaceOnUse" color-interpolation-filters="sRGB">
<feFlood flood-opacity="0" result="BackgroundImageFix"/>
<feColorMatrix in="SourceAlpha" type="matrix" values="0 0 0 0 0 0 0 0 0 0 0 0 0 0 0 0 0 0 127 0" result="hardAlpha"/>
<feOffset dx="4" dy="4"/>
<feGaussianBlur stdDeviation="5"/>
<feComposite in2="hardAlpha" operator="out"/>
<feColorMatrix type="matrix" values="0 0 0 0 0.641989 0 0 0 0 0.657274 0 0 0 0 0.773006 0 0 0 0.12 0"/>
<feBlend mode="normal" in2="BackgroundImageFix" result="effect1_dropShadow_1099_1678"/>
<feBlend mode="normal" in="SourceGraphic" in2="effect1_dropShadow_1099_1678" result="shape"/>
</filter>
</defs>
</svg>
