<svg width="366" height="140" viewBox="0 0 366 140" fill="none" xmlns="http://www.w3.org/2000/svg">
<g filter="url(#filter0_d_1099_1664)">
<rect x="6" y="6" width="346" height="120" rx="20" fill="white"/>
</g>
<rect x="254.895" y="41.2207" width="74.1065" height="47.6945" rx="12" fill="#B2DAFF"/>
<path d="M271.825 96.5257C270.531 97.7802 268.367 96.8539 268.419 95.0677L268.767 82.9372C268.808 81.5241 270.279 80.5899 271.584 81.1485L280.023 84.7602C281.328 85.3188 281.636 87.0146 280.612 88.007L271.825 96.5257Z" fill="#B2DAFF"/>
<path d="M299.266 55.6191H319.393" stroke="#8BB9F1" stroke-width="4" stroke-linecap="round"/>
<path d="M299.266 65.5176H319.393" stroke="#8BB9F1" stroke-width="4" stroke-linecap="round"/>
<rect width="6.35562" height="23.5796" rx="3.17781" transform="matrix(0.736764 -0.67615 0.688206 0.725515 279.596 71.6152)" fill="#637A9C"/>
<rect width="11.8033" height="23.5796" rx="3" transform="matrix(0.736764 -0.67615 0.688206 0.725515 282.582 78.7207)" fill="#7997C2"/>
<ellipse cx="268.16" cy="53.3702" rx="25.1596" ry="24.7472" fill="#7997C2"/>
<ellipse cx="268.159" cy="53.3693" rx="19.6702" ry="19.3478" fill="#E4F3FE"/>
<defs>
<filter id="filter0_d_1099_1664" x="0" y="0" width="366" height="140" filterUnits="userSpaceOnUse" color-interpolation-filters="sRGB">
<feFlood flood-opacity="0" result="BackgroundImageFix"/>
<feColorMatrix in="SourceAlpha" type="matrix" values="0 0 0 0 0 0 0 0 0 0 0 0 0 0 0 0 0 0 127 0" result="hardAlpha"/>
<feOffset dx="4" dy="4"/>
<feGaussianBlur stdDeviation="5"/>
<feComposite in2="hardAlpha" operator="out"/>
<feColorMatrix type="matrix" values="0 0 0 0 0.641989 0 0 0 0 0.657274 0 0 0 0 0.773006 0 0 0 0.12 0"/>
<feBlend mode="normal" in2="BackgroundImageFix" result="effect1_dropShadow_1099_1664"/>
<feBlend mode="normal" in="SourceGraphic" in2="effect1_dropShadow_1099_1664" result="shape"/>
</filter>
</defs>
</svg>
