<svg width="82" height="63" viewBox="0 0 82 63" fill="none" xmlns="http://www.w3.org/2000/svg">
<rect x="2.58984" y="20.7148" width="76.8211" height="41.4316" rx="6" fill="#A5D0FE"/>
<path d="M2.58984 23.8516C2.58984 21.6424 4.3807 19.8516 6.58984 19.8516H75.4109C77.62 19.8516 79.4109 21.6424 79.4109 23.8516V27.62H2.58984V23.8516Z" fill="#6CAEFB"/>
<path d="M18.9902 8.58985C18.9902 5.27614 21.6765 2.58984 24.9902 2.58984H57.0113C60.325 2.58984 63.0113 5.27614 63.0113 8.58984V62.1477H18.9902V8.58985Z" fill="#E6F3FF"/>
<path d="M18.9902 4C18.9902 1.79087 20.7811 0 22.9902 0H59.0113C61.2204 0 63.0113 1.79086 63.0113 4V12.0842H18.9902V4Z" fill="#3095FE"/>
<path d="M53.5156 23.6211C53.5156 25.8302 51.7248 27.6211 49.5156 27.6211L32.484 27.6211C30.2749 27.6211 28.484 25.8302 28.484 23.6211L28.484 8.63162L53.5156 8.63162L53.5156 23.6211Z" fill="#3095FE"/>
<path d="M0 57.7891C0 54.4754 2.68629 51.7891 6 51.7891H6.94736C10.2611 51.7891 12.9474 54.4754 12.9474 57.7891L12.9474 62.147H0L0 57.7891Z" fill="#A0D93F"/>
<path d="M63.0098 61.2838C63.0098 56.04 67.2607 51.7891 72.5045 51.7891C77.7483 51.7891 81.9992 56.04 81.9992 61.2838V62.147H63.0098V61.2838Z" fill="#A0D93F"/>
<path d="M33.6641 42.8418C33.6641 40.6327 35.4549 38.8418 37.6641 38.8418H43.4746C45.6837 38.8418 47.4746 40.6327 47.4746 42.8418V62.1471H33.6641V42.8418Z" fill="#8CC2FE"/>
<path d="M32.8008 40.8418C32.8008 39.7372 33.6962 38.8418 34.8008 38.8418H40.5692V62.1471H32.8008V40.8418Z" fill="#429CFD"/>
<path d="M42.2949 38.8418H48.0633C49.1679 38.8418 50.0633 39.7372 50.0633 40.8418V62.1471H42.2949V38.8418Z" fill="#429CFD"/>
<rect x="38.8418" y="8.63086" width="4.31579" height="11.2211" rx="1" fill="#EBF0FE"/>
<rect x="46.6094" y="12.084" width="4.31579" height="11.2211" rx="1" transform="rotate(90 46.6094 12.084)" fill="#EBF0FE"/>
<rect x="9.49414" y="33.6621" width="3.45263" height="10.3579" rx="1.72632" fill="#6CAEFB"/>
<rect x="69.0527" y="33.6621" width="3.45263" height="10.3579" rx="1.72632" fill="#6CAEFB"/>
</svg>
