<?xml version="1.0" encoding="UTF-8"?>
<svg version="1.1" xmlns="http://www.w3.org/2000/svg" width="512" height="512">
<path d="M0 0 C0.90893005 -0.00983917 1.81786011 -0.01967834 2.7543335 -0.02981567 C39.7337387 -0.34744324 74.71512888 3.86803324 109.1640625 18.23828125 C110.01742188 18.59229004 110.87078125 18.94629883 111.75 19.31103516 C150.46722188 35.6045327 186.45438112 61.76718662 212.1640625 95.23828125 C213.37449219 96.75808594 213.37449219 96.75808594 214.609375 98.30859375 C220.23567901 105.41192402 225.30470519 112.75988301 230.06396484 120.46875 C231.13774211 122.19594432 232.23643729 123.90490879 233.33984375 125.61328125 C249.83261446 151.57616562 259.35763194 181.21719868 265.1640625 211.23828125 C265.34340332 212.15851074 265.52274414 213.07874023 265.70751953 214.02685547 C277.51896826 278.31538625 260.85789443 347.8859223 224.171875 401.4296875 C209.654453 421.73713189 192.98055107 440.94883533 173.1640625 456.23828125 C171.69453125 457.41583984 171.69453125 457.41583984 170.1953125 458.6171875 C147.86432309 476.39992106 122.23768427 490.22266878 95.1640625 499.23828125 C94.35485352 499.51075684 93.54564453 499.78323242 92.71191406 500.06396484 C82.93469347 503.30547451 73.04895499 505.8416271 62.9765625 507.98828125 C62.05190186 508.18703857 61.12724121 508.3857959 60.17456055 508.59057617 C44.30537871 511.81471631 28.69035036 512.61386479 12.5390625 512.55078125 C11.08422958 512.54804703 11.08422958 512.54804703 9.6000061 512.54525757 C-4.74914795 512.49987178 -18.71874009 512.00401063 -32.8359375 509.23828125 C-33.74891602 509.07199219 -34.66189453 508.90570313 -35.60253906 508.734375 C-77.2345603 501.07465048 -115.99645956 482.83203242 -148.8359375 456.23828125 C-149.38040527 455.79822754 -149.92487305 455.35817383 -150.48583984 454.90478516 C-164.55767679 443.42653262 -177.77274397 430.66109061 -188.8359375 416.23828125 C-189.59519531 415.30757813 -190.35445312 414.376875 -191.13671875 413.41796875 C-217.00022422 381.16077373 -233.45158842 341.71624902 -240.8359375 301.23828125 C-241.08150391 299.99280518 -241.08150391 299.99280518 -241.33203125 298.72216797 C-247.01379556 269.19225448 -246.064794 235.57695192 -239.8359375 206.23828125 C-239.64338379 205.29710449 -239.45083008 204.35592773 -239.25244141 203.38623047 C-232.74245942 172.10894861 -220.25271638 140.45381539 -201.8359375 114.23828125 C-201.37074707 113.56990234 -200.90555664 112.90152344 -200.42626953 112.21289062 C-194.02854152 103.05246259 -187.51662528 94.36355973 -179.8359375 86.23828125 C-178.76849419 84.99249996 -177.70590183 83.74254416 -176.6484375 82.48828125 C-167.92075693 72.50511067 -158.34539386 63.31925766 -147.8359375 55.23828125 C-147.27245605 54.79307129 -146.70897461 54.34786133 -146.12841797 53.88916016 C-130.60541058 41.6258599 -113.75272641 31.5954872 -95.8359375 23.23828125 C-95.2083252 22.94115234 -94.58071289 22.64402344 -93.93408203 22.33789062 C-64.89042964 8.68253959 -32.17005328 0.28910431 0 0 Z M-29.8359375 25.23828125 C-30.82368164 25.44227539 -31.81142578 25.64626953 -32.82910156 25.85644531 C-65.53715979 32.77681365 -96.86120663 45.22263328 -123.8359375 65.23828125 C-121.64908115 66.53036069 -121.64908115 66.53036069 -118.0859375 66.11328125 C-113.93376051 66.04619042 -111.54089411 67.34799727 -107.8359375 69.23828125 C-104.84036107 69.93552749 -101.90931932 70.50756804 -98.8359375 70.23828125 C-97.06235476 68.83588388 -97.06235476 68.83588388 -95.8359375 67.23828125 C-96.1659375 66.24828125 -96.4959375 65.25828125 -96.8359375 64.23828125 C-100.7959375 63.90828125 -104.7559375 63.57828125 -108.8359375 63.23828125 C-100.67966716 55.65968942 -94.94102009 52.12828142 -83.66015625 52.10546875 C-82.72816406 52.14929688 -81.79617187 52.193125 -80.8359375 52.23828125 C-80.43375 53.35203125 -80.43375 53.35203125 -80.0234375 54.48828125 C-78.85637612 57.1909497 -77.86957391 59.11478649 -75.8359375 61.23828125 C-72.5175797 62.36877264 -69.31870228 62.60223577 -65.8359375 62.23828125 C-63.08552084 59.82161354 -63.08552084 59.82161354 -60.8359375 57.23828125 C-57.5234375 57.42578125 -57.5234375 57.42578125 -54.8359375 58.23828125 C-55.81460088 59.38454447 -56.79388337 60.53027913 -57.7734375 61.67578125 C-58.31871094 62.31386719 -58.86398438 62.95195313 -59.42578125 63.609375 C-62.12100988 66.72270004 -63.71095706 66.49223006 -67.8984375 66.80078125 C-69.00316406 66.88457031 -70.10789063 66.96835938 -71.24609375 67.0546875 C-72.10074219 67.11527344 -72.95539063 67.17585938 -73.8359375 67.23828125 C-73.5059375 69.87828125 -73.1759375 72.51828125 -72.8359375 75.23828125 C-68.2159375 74.90828125 -63.5959375 74.57828125 -58.8359375 74.23828125 C-58.5059375 72.91828125 -58.1759375 71.59828125 -57.8359375 70.23828125 C-54.5359375 70.23828125 -51.2359375 70.23828125 -47.8359375 70.23828125 C-47.5059375 68.58828125 -47.1759375 66.93828125 -46.8359375 65.23828125 C-48.4859375 64.57828125 -50.1359375 63.91828125 -51.8359375 63.23828125 C-51.1759375 61.58828125 -50.5159375 59.93828125 -49.8359375 58.23828125 C-43.13918614 57.20801181 -36.6044699 57.13675326 -29.8359375 57.23828125 C-34.8359375 62.23828125 -34.8359375 62.23828125 -36.7109375 63.67578125 C-38.17914771 65.35211278 -38.17914771 65.35211278 -37.5234375 68.42578125 C-37.2965625 69.35390625 -37.0696875 70.28203125 -36.8359375 71.23828125 C-34.1959375 71.56828125 -31.5559375 71.89828125 -28.8359375 72.23828125 C-28.83335937 71.47902344 -28.83078125 70.71976563 -28.828125 69.9375 C-28.71168155 66.94490342 -28.46837862 64.16657026 -27.8359375 61.23828125 C-23.24120477 57.02644291 -14.92242901 56.66842199 -8.8359375 56.23828125 C-2.89316115 56.65029512 2.11241818 58.50083394 7.5390625 60.80078125 C8.35761719 61.11080078 9.17617187 61.42082031 10.01953125 61.74023438 C12.35076102 62.73187689 14.223542 63.60593416 16.1640625 65.23828125 C17.21899538 68.10506475 17.19676647 70.12159252 17.1640625 73.23828125 C19.4740625 73.89828125 21.7840625 74.55828125 24.1640625 75.23828125 C23.1740625 77.54828125 22.1840625 79.85828125 21.1640625 82.23828125 C20.47699219 82.24085937 19.78992188 82.2434375 19.08203125 82.24609375 C16.3238089 82.36447239 13.84141079 82.55277662 11.1640625 83.23828125 C8.92519518 86.12507969 8.92519518 86.12507969 8.1640625 89.23828125 C0.23074532 88.59066352 -7.18733549 86.35530502 -14.8359375 84.23828125 C-9.8859375 81.59828125 -4.9359375 78.95828125 0.1640625 76.23828125 C0.42160278 73.33948627 0.42160278 73.33948627 -0.84765625 71.5546875 C-3.94829318 69.50181 -7.08152037 69.92787186 -10.6484375 70.17578125 C-11.37603271 70.22154297 -12.10362793 70.26730469 -12.85327148 70.31445312 C-16.93003842 70.69510536 -19.65216248 71.10722594 -22.3984375 74.23828125 C-23.2028125 75.22828125 -24.0071875 76.21828125 -24.8359375 77.23828125 C-28.7109375 78.11328125 -28.7109375 78.11328125 -31.8359375 78.23828125 C-31.5059375 79.55828125 -31.1759375 80.87828125 -30.8359375 82.23828125 C-30.1759375 82.23828125 -29.5159375 82.23828125 -28.8359375 82.23828125 C-29.8359375 84.23828125 -29.8359375 84.23828125 -32.8984375 85.36328125 C-33.8678125 85.65203125 -34.8371875 85.94078125 -35.8359375 86.23828125 C-35.8359375 87.22828125 -35.8359375 88.21828125 -35.8359375 89.23828125 C-38.1459375 89.23828125 -40.4559375 89.23828125 -42.8359375 89.23828125 C-42.8359375 86.92828125 -42.8359375 84.61828125 -42.8359375 82.23828125 C-54.28697772 85.09532721 -63.84778286 91.15498657 -73.8359375 97.23828125 C-73.38522277 98.70028714 -72.92508846 100.1593916 -72.4609375 101.6171875 C-72.20570313 102.43002197 -71.95046875 103.24285645 -71.6875 104.08032227 C-70.94328993 106.40095229 -70.94328993 106.40095229 -68.8359375 108.17578125 C-64.24901757 109.80031539 -59.64244991 110.48545401 -54.8359375 111.23828125 C-54.5059375 115.52828125 -54.1759375 119.81828125 -53.8359375 124.23828125 C-51.3609375 123.74328125 -51.3609375 123.74328125 -48.8359375 123.23828125 C-47.58262532 121.06583887 -47.58262532 121.06583887 -46.7734375 118.42578125 C-45.19510382 114.84378371 -44.37294875 113.51733029 -40.8515625 111.6875 C-37.88798354 110.73094576 -34.86286459 109.97006582 -31.8359375 109.23828125 C-31.8359375 103.62828125 -31.8359375 98.01828125 -31.8359375 92.23828125 C-25.58689049 89.11375774 -25.58689049 89.11375774 -21.2734375 89.61328125 C-20.38785156 89.71253906 -19.50226563 89.81179687 -18.58984375 89.9140625 C-17.68105469 90.02105469 -16.77226562 90.12804687 -15.8359375 90.23828125 C-14.12767395 90.426416 -12.41934589 90.61396639 -10.7109375 90.80078125 C-9.4321875 90.94515625 -8.1534375 91.08953125 -6.8359375 91.23828125 C-7.1659375 92.22828125 -7.4959375 93.21828125 -7.8359375 94.23828125 C-7.90259126 95.63267789 -7.92131949 97.02998 -7.8984375 98.42578125 C-7.8675 100.31296875 -7.8675 100.31296875 -7.8359375 102.23828125 C-1.80823612 101.76241009 2.93084539 99.04105168 8.1640625 96.23828125 C8.1434375 97.19089844 8.1228125 98.14351563 8.1015625 99.125 C8.16488726 102.97593686 8.33268543 106.47339234 9.1640625 110.23828125 C11.15142451 112.09539332 12.94589135 112.92670559 15.41796875 114.01953125 C17.1640625 115.23828125 17.1640625 115.23828125 17.69140625 117.51953125 C17.6640625 120.05078125 17.6640625 120.05078125 17.1640625 124.23828125 C13.2040625 125.72328125 13.2040625 125.72328125 9.1640625 127.23828125 C9.83033762 130.35425037 9.83033762 130.35425037 12.23046875 131.40625 C13.46603516 131.91091797 13.46603516 131.91091797 14.7265625 132.42578125 C15.96599609 132.94205078 15.96599609 132.94205078 17.23046875 133.46875 C17.86855469 133.72269531 18.50664062 133.97664063 19.1640625 134.23828125 C19.1640625 136.21828125 19.1640625 138.19828125 19.1640625 140.23828125 C13.69541793 139.22236704 8.40016237 138.16737068 3.1640625 136.23828125 C2.9765625 133.86328125 2.9765625 133.86328125 3.1640625 131.23828125 C4.1540625 130.57828125 5.1440625 129.91828125 6.1640625 129.23828125 C6.1640625 128.24828125 6.1640625 127.25828125 6.1640625 126.23828125 C4.8440625 125.90828125 3.5240625 125.57828125 2.1640625 125.23828125 C1.8340625 126.22828125 1.5040625 127.21828125 1.1640625 128.23828125 C-4.2809375 129.22828125 -4.2809375 129.22828125 -9.8359375 130.23828125 C-10.1659375 128.91828125 -10.4959375 127.59828125 -10.8359375 126.23828125 C-13.59843786 124.85703107 -15.78324849 125.04748819 -18.8359375 125.23828125 C-19.4959375 125.89828125 -20.1559375 126.55828125 -20.8359375 127.23828125 C-20.8359375 128.22828125 -20.8359375 129.21828125 -20.8359375 130.23828125 C-18.1959375 131.22828125 -15.5559375 132.21828125 -12.8359375 133.23828125 C-13.8259375 134.22828125 -14.8159375 135.21828125 -15.8359375 136.23828125 C-15.8359375 136.89828125 -15.8359375 137.55828125 -15.8359375 138.23828125 C-16.4134375 137.72265625 -16.9909375 137.20703125 -17.5859375 136.67578125 C-19.65878821 135.02181907 -19.65878821 135.02181907 -21.71484375 135.4375 C-24.31871031 136.42054354 -25.9465198 137.76626626 -28.0234375 139.61328125 C-28.71824219 140.21914062 -29.41304687 140.825 -30.12890625 141.44921875 C-32.06944337 143.22861595 -32.06944337 143.22861595 -32.8359375 146.23828125 C-34.85854035 147.41393766 -36.93142216 148.50361264 -39.0234375 149.55078125 C-44.95347883 152.73365909 -49.79080967 156.52253669 -54.5859375 161.23828125 C-55.18172607 161.80716064 -55.77751465 162.37604004 -56.39135742 162.9621582 C-59.35769665 165.989748 -61.0379871 168.13604507 -61.7734375 172.35546875 C-62.41378169 175.71930216 -63.30014015 177.01445288 -66.1015625 178.99609375 C-67.41497529 179.80940949 -68.74384746 180.59821265 -70.0859375 181.36328125 C-77.85665786 185.77839343 -77.85665786 185.77839343 -83.8359375 192.23828125 C-84.12140538 195.24480471 -84.13637111 197.22481095 -83.7109375 200.11328125 C-83.59878906 201.14582031 -83.59878906 201.14582031 -83.484375 202.19921875 C-83.29735507 203.88239808 -83.07065911 205.56108869 -82.8359375 207.23828125 C-83.37863281 206.94953125 -83.92132813 206.66078125 -84.48046875 206.36328125 C-85.55361328 205.80640625 -85.55361328 205.80640625 -86.6484375 205.23828125 C-87.70998047 204.68140625 -87.70998047 204.68140625 -88.79296875 204.11328125 C-90.92514479 203.04142767 -90.92514479 203.04142767 -93.8359375 203.23828125 C-93.8359375 200.26828125 -93.8359375 197.29828125 -93.8359375 194.23828125 C-114.05184972 192.49914917 -114.05184972 192.49914917 -132.53515625 199.0390625 C-136.32336699 202.66005172 -138.77262938 206.44248401 -140.8359375 211.23828125 C-141.5165625 212.81609375 -141.5165625 212.81609375 -142.2109375 214.42578125 C-143.2530301 219.11519796 -143.12598887 222.93305009 -142.0859375 227.61328125 C-139.50412979 230.62539025 -138.46309197 231.02956888 -134.6484375 231.80078125 C-126.00681257 232.21329456 -119.78920675 226.48269521 -113.34130859 221.37744141 C-111.8359375 220.23828125 -111.8359375 220.23828125 -109.8359375 219.23828125 C-109.53791493 225.00005092 -109.96868241 228.10111587 -112.8359375 233.23828125 C-112.8359375 234.22828125 -112.8359375 235.21828125 -112.8359375 236.23828125 C-112.05347656 236.37105469 -111.27101563 236.50382813 -110.46484375 236.640625 C-109.45292969 236.81722656 -108.44101563 236.99382812 -107.3984375 237.17578125 C-106.38910156 237.34980469 -105.37976563 237.52382812 -104.33984375 237.703125 C-101.8359375 238.23828125 -101.8359375 238.23828125 -100.8359375 239.23828125 C-100.62373428 241.84661247 -100.45937411 244.43803957 -100.3359375 247.05078125 C-100.13615374 251.21294291 -99.94284333 255.20222026 -98.8359375 259.23828125 C-89.97335905 261.7811135 -89.97335905 261.7811135 -80.8359375 262.23828125 C-76.61721605 259.64700665 -74.3334262 256.455979 -71.8359375 252.23828125 C-71.1759375 251.24828125 -70.5159375 250.25828125 -69.8359375 249.23828125 C-67.75143033 249.52143685 -65.66835383 249.81513794 -63.5859375 250.11328125 C-61.84570312 250.35691406 -61.84570312 250.35691406 -60.0703125 250.60546875 C-55.2329072 251.55191761 -55.2329072 251.55191761 -52.8359375 253.23828125 C-52.38347656 254.09679687 -51.93101562 254.9553125 -51.46484375 255.83984375 C-50.92730469 256.63132812 -50.38976562 257.4228125 -49.8359375 258.23828125 C-46.94278829 258.88094505 -46.94278829 258.88094505 -43.7734375 258.61328125 C-42.70996094 258.57976562 -41.64648438 258.54625 -40.55078125 258.51171875 C-37.87188812 258.40431058 -37.87188812 258.40431058 -35.8359375 257.23828125 C-35.8359375 255.91828125 -35.8359375 254.59828125 -35.8359375 253.23828125 C-28.55845138 256.22518598 -25.2381133 259.90947338 -21.5390625 266.8125 C-19.48366789 269.74002306 -18.27810124 270.3739934 -14.8359375 271.23828125 C-11.71014556 271.47841044 -11.71014556 271.47841044 -8.5234375 271.36328125 C-7.45480469 271.34523438 -6.38617188 271.3271875 -5.28515625 271.30859375 C-4.47691406 271.28539062 -3.66867188 271.2621875 -2.8359375 271.23828125 C-2.4028125 272.63046875 -2.4028125 272.63046875 -1.9609375 274.05078125 C-0.9484375 277.33619792 -0.9484375 277.33619792 1.1640625 280.23828125 C1.578125 283.15625 1.578125 283.15625 1.7890625 286.42578125 C1.90121094 288.05580078 1.90121094 288.05580078 2.015625 289.71875 C2.08910156 290.96591797 2.08910156 290.96591797 2.1640625 292.23828125 C14.75239483 298.92023964 26.15608394 298.95027286 40.1640625 298.23828125 C40.46183594 298.99753906 40.75960938 299.75679688 41.06640625 300.5390625 C42.45807963 303.96129136 43.72693244 306.4262081 46.1640625 309.23828125 C49.12057129 310.31569637 52.04719814 310.85200319 55.1640625 311.23828125 C53.97654828 317.53074163 52.14768318 321.51731362 47.6640625 326.13671875 C41.60518327 333.32235181 41.5184416 340.49111694 40.98217773 349.57250977 C40.24474031 360.76173071 40.24474031 360.76173071 37.52587891 364.4765625 C33.15666173 368.06938302 29.34346787 368.94093925 23.6640625 368.61328125 C21.82328125 368.53207031 21.82328125 368.53207031 19.9453125 368.44921875 C19.0275 368.37960937 18.1096875 368.31 17.1640625 368.23828125 C13.83976744 372.62570802 13.83976744 372.62570802 13.34375 377.94140625 C13.71461409 379.80080701 14.1267121 381.65261598 14.5859375 383.4921875 C16.10767601 390.7204454 16.10767601 390.7204454 14.03710938 394.05102539 C12.43543062 396.09493159 10.76142722 398.04504093 9.0390625 399.98828125 C5.20671693 404.44471081 1.76461148 408.54911594 -0.8359375 413.86328125 C-4.28975856 420.06137705 -10.38107025 422.04055264 -16.8359375 424.23828125 C-19.85113944 425.091484 -22.74083779 425.71368808 -25.8359375 426.23828125 C-25.5059375 427.55828125 -25.1759375 428.87828125 -24.8359375 430.23828125 C-23.1859375 430.56828125 -21.5359375 430.89828125 -19.8359375 431.23828125 C-22.4609375 437.98828125 -22.4609375 437.98828125 -25.8359375 440.23828125 C-25.1759375 441.88828125 -24.5159375 443.53828125 -23.8359375 445.23828125 C-21.1959375 445.23828125 -18.5559375 445.23828125 -15.8359375 445.23828125 C-16.06410156 446.04652344 -16.29226562 446.85476563 -16.52734375 447.6875 C-16.81480469 448.75613281 -17.10226563 449.82476562 -17.3984375 450.92578125 C-17.68847656 451.98152344 -17.97851562 453.03726562 -18.27734375 454.125 C-18.85352512 457.33630454 -18.96092425 459.18623385 -17.8359375 462.23828125 C-15.85682012 463.94124272 -13.78391026 465.16946815 -11.55078125 466.515625 C-9.8359375 468.23828125 -9.8359375 468.23828125 -9.58984375 471.4296875 C-9.71166016 472.81994141 -9.71166016 472.81994141 -9.8359375 474.23828125 C-17.63771146 474.75906719 -24.77183098 474.89435773 -31.10620117 469.79174805 C-38.85495642 462.59234925 -48.15035629 451.64112937 -49.04150391 440.71875 C-48.96082954 437.35753327 -48.63744733 434.07048523 -48.21264648 430.73681641 C-47.644409 425.87955148 -47.644409 425.87955148 -49.2890625 421.32421875 C-50.56268397 419.86506974 -51.8757133 418.43890743 -53.234375 417.05859375 C-54.8359375 415.23828125 -54.8359375 415.23828125 -55.3984375 411.42578125 C-55.26477699 410.02376777 -55.06863915 408.62729417 -54.8359375 407.23828125 C-54.67996094 406.19285156 -54.52398437 405.14742188 -54.36328125 404.0703125 C-53.89586919 401.11696075 -53.38458574 398.17746823 -52.8359375 395.23828125 C-54.4859375 394.90828125 -56.1359375 394.57828125 -57.8359375 394.23828125 C-57.76262207 393.0486377 -57.68930664 391.85899414 -57.61376953 390.63330078 C-57.35861406 386.18056208 -57.19907685 381.72845079 -57.06689453 377.27050781 C-56.99686866 375.34915268 -56.90159607 373.42853378 -56.77978516 371.50976562 C-55.79100775 360.99679818 -55.79100775 360.99679818 -59.14245605 351.37585449 C-63.8376973 346.70105645 -69.32838602 343.8747502 -75.70166016 342.25708008 C-78.8359375 341.23828125 -78.8359375 341.23828125 -79.94726562 339.36645508 C-80.15512695 338.260802 -80.15512695 338.260802 -80.3671875 337.1328125 C-81.81381551 331.62526151 -84.64857311 328.17319988 -88.3359375 323.92578125 C-89.49256748 322.55500803 -90.64882948 321.18392422 -91.8046875 319.8125 C-92.31451172 319.22041748 -92.82433594 318.62833496 -93.34960938 318.01831055 C-93.84009766 317.43090088 -94.33058594 316.84349121 -94.8359375 316.23828125 C-95.39990234 315.5728833 -95.96386719 314.90748535 -96.54492188 314.22192383 C-98.2589415 311.58833657 -97.68842785 309.86730225 -97.1640625 306.875 C-96.7227646 303.32885614 -96.74875286 299.80500254 -96.7734375 296.23828125 C-96.77754639 295.55467529 -96.78165527 294.87106934 -96.78588867 294.16674805 C-96.79857564 292.52389006 -96.81668601 290.88107542 -96.8359375 289.23828125 C-96.09988281 288.97273438 -95.36382812 288.7071875 -94.60546875 288.43359375 C-91.87701102 287.25600832 -89.85834471 285.93371738 -87.5234375 284.11328125 C-86.3065625 283.16453125 -85.0896875 282.21578125 -83.8359375 281.23828125 C-84.8259375 274.30828125 -84.8259375 274.30828125 -85.8359375 267.23828125 C-87.00769531 267.233125 -88.17945313 267.22796875 -89.38671875 267.22265625 C-103.40404682 266.70017863 -103.40404682 266.70017863 -108.84057617 261.00097656 C-110.946569 258.48414067 -112.89241125 255.88344153 -114.8359375 253.23828125 C-117.90099185 249.59030245 -120.26100161 248.52265357 -124.8984375 247.48828125 C-126.46271484 247.12476563 -126.46271484 247.12476563 -128.05859375 246.75390625 C-130.85673682 246.1470138 -130.85673682 246.1470138 -133.8359375 246.23828125 C-133.8359375 244.25828125 -133.8359375 242.27828125 -133.8359375 240.23828125 C-136.1459375 239.90828125 -138.4559375 239.57828125 -140.8359375 239.23828125 C-140.8359375 240.22828125 -140.8359375 241.21828125 -140.8359375 242.23828125 C-141.39579346 242.08681641 -141.95564941 241.93535156 -142.5324707 241.77929688 C-145.07010082 241.09508674 -147.60923314 240.41662465 -150.1484375 239.73828125 C-151.02951172 239.49980469 -151.91058594 239.26132813 -152.81835938 239.015625 C-153.66591797 238.79003906 -154.51347656 238.56445312 -155.38671875 238.33203125 C-156.55714722 238.01782227 -156.55714722 238.01782227 -157.7512207 237.69726562 C-159.96846846 237.13077291 -159.96846846 237.13077291 -162.8359375 237.23828125 C-163.0628125 236.55765625 -163.2896875 235.87703125 -163.5234375 235.17578125 C-164.6927984 232.55864018 -165.82032668 230.93687566 -167.5859375 228.73828125 C-168.9296875 226.93359375 -168.9296875 226.93359375 -169.8359375 225.23828125 C-169.0859375 222.61328125 -169.0859375 222.61328125 -167.8359375 220.23828125 C-168.09594735 215.32409506 -170.89934085 212.11098632 -173.7109375 208.30078125 C-178.75435055 201.17978047 -180.78627329 194.97202574 -181.8359375 186.23828125 C-183.1559375 186.23828125 -184.4759375 186.23828125 -185.8359375 186.23828125 C-185.8771875 187.43453125 -185.9184375 188.63078125 -185.9609375 189.86328125 C-185.98414063 190.53617188 -186.00734375 191.2090625 -186.03125 191.90234375 C-185.57644699 197.34178781 -183.30244671 201.29296264 -180.2109375 205.67578125 C-177.20518429 210.23108426 -175.99742006 212.84781196 -176.8359375 218.23828125 C-179.8059375 217.90828125 -182.7759375 217.57828125 -185.8359375 217.23828125 C-186.10277344 216.49707031 -186.36960938 215.75585938 -186.64453125 214.9921875 C-187.80371792 212.31275603 -189.14211089 210.4844661 -190.8984375 208.17578125 C-195.70634214 200.51354879 -194.85379175 190.99961689 -194.8359375 182.23828125 C-196.12507237 181.56673192 -197.41733954 180.90119266 -198.7109375 180.23828125 C-199.78988281 179.68140625 -199.78988281 179.68140625 -200.890625 179.11328125 C-202.78442727 178.10154379 -202.78442727 178.10154379 -204.8359375 178.23828125 C-204.8359375 175.26828125 -204.8359375 172.29828125 -204.8359375 169.23828125 C-214.2927601 178.69510385 -216.36400019 201.46544464 -218.8359375 214.23828125 C-219.00109863 215.05151855 -219.16625977 215.86475586 -219.33642578 216.70263672 C-224.41609855 242.59478467 -224.08088243 272.41268409 -218.8359375 298.23828125 C-218.66433105 299.12499512 -218.49272461 300.01170898 -218.31591797 300.92529297 C-210.12994275 342.54282026 -191.1002161 380.63907057 -162.8359375 412.23828125 C-162.33529785 412.80063477 -161.8346582 413.36298828 -161.31884766 413.94238281 C-155.49341372 420.45649301 -149.57856838 426.65984563 -142.8359375 432.23828125 C-141.38960937 433.49898438 -141.38960937 433.49898438 -139.9140625 434.78515625 C-128.12514646 445.03919743 -115.36283284 453.47459306 -101.8359375 461.23828125 C-100.94334229 461.75455078 -100.94334229 461.75455078 -100.03271484 462.28125 C-80.25302633 473.61805747 -58.4022355 481.03863851 -36.2109375 485.98828125 C-35.33010498 486.18703857 -34.44927246 486.3857959 -33.54174805 486.59057617 C-18.59493549 489.76441013 -3.69781327 490.64788555 11.5390625 490.61328125 C12.40680298 490.61306976 13.27454346 490.61285828 14.1685791 490.61264038 C29.46420017 490.57567497 44.15511187 489.37463262 59.1640625 486.23828125 C60.06946777 486.05104492 60.97487305 485.86380859 61.90771484 485.67089844 C102.57527205 476.97091114 139.31726264 457.23677925 169.91796875 429.26171875 C171.69131846 427.66416197 173.48090232 426.15444633 175.3515625 424.67578125 C179.01496153 421.50083542 182.0307196 417.92536148 185.1640625 414.23828125 C187.06605965 412.09110478 188.9713968 409.94696734 190.87890625 407.8046875 C192.26977701 406.44712213 192.26977701 406.44712213 192.1640625 405.23828125 C190.1840625 405.23828125 188.2040625 405.23828125 186.1640625 405.23828125 C186.256875 404.13871094 186.3496875 403.03914063 186.4453125 401.90625 C187.17816494 391.59168278 187.17816494 391.59168278 182.2265625 382.86328125 C177.27004974 377.24936016 177.34406491 372.14593863 177.64086914 364.96142578 C177.81132915 360.42743315 177.81132915 360.42743315 175.83422852 356.50415039 C174.75697497 355.49989842 173.66042306 354.51587536 172.54394531 353.55541992 C171.1640625 352.23828125 171.1640625 352.23828125 170.33203125 349.7734375 C170.37618091 344.18409042 171.2212749 340.97129626 174.29272461 336.2277832 C176.33318367 332.94874372 177.94062321 330.16170971 178.1640625 326.23828125 C176.08064695 319.08148108 171.81176902 312.74960677 167.71728516 306.58740234 C162.76305091 299.09453188 162.76305091 299.09453188 162.9140625 295.17578125 C162.93984375 294.41265625 162.965625 293.64953125 162.9921875 292.86328125 C163.31183773 287.98135044 163.70255582 283.10882492 164.1640625 278.23828125 C162.62685547 278.10873047 162.62685547 278.10873047 161.05859375 277.9765625 C159.69779669 277.83579039 158.33712542 277.69379856 156.9765625 277.55078125 C156.30302734 277.49728516 155.62949219 277.44378906 154.93554688 277.38867188 C149.65225792 276.79591263 147.72324984 274.9885659 144.1640625 271.23828125 C141.6551163 270.49648497 141.6551163 270.49648497 139.1015625 270.67578125 C138.26496094 270.67449219 137.42835938 270.67320312 136.56640625 270.671875 C134.00632829 271.02999113 134.00632829 271.02999113 132.421875 273.2265625 C128.98274846 276.29083615 125.56860372 275.91756177 121.1015625 275.98828125 C120.24755859 276.00850342 119.39355469 276.02872559 118.51367188 276.04956055 C116.82156574 276.08890812 115.12933184 276.12314971 113.43701172 276.15185547 C110.9827225 276.20583364 110.9827225 276.20583364 107.85546875 276.7109375 C104.8937861 277.08490904 103.01669807 277.14716514 100.1640625 276.23828125 C95.86773369 272.71216265 92.57308931 268.60012603 89.1640625 264.23828125 C88.28259428 263.16471463 87.39727183 262.09429905 86.5078125 261.02734375 C84.93939265 259.1363059 83.38318548 257.23501962 81.84375 255.3203125 C80.33133073 253.3700992 80.33133073 253.3700992 79.1640625 252.23828125 C79.07720647 250.6765538 79.05704031 249.11098781 79.06640625 247.546875 C79.06962891 246.60263672 79.07285156 245.65839844 79.07617188 244.68554688 C79.08455078 243.69232422 79.09292969 242.69910156 79.1015625 241.67578125 C79.10607422 240.67869141 79.11058594 239.68160156 79.11523438 238.65429688 C79.12706243 236.18223276 79.14354401 233.71028607 79.1640625 231.23828125 C80.1540625 230.90828125 81.1440625 230.57828125 82.1640625 230.23828125 C82.4940625 227.92828125 82.8240625 225.61828125 83.1640625 223.23828125 C81.5140625 223.23828125 79.8640625 223.23828125 78.1640625 223.23828125 C77.5040625 219.93828125 76.8440625 216.63828125 76.1640625 213.23828125 C76.85886719 213.00625 77.55367188 212.77421875 78.26953125 212.53515625 C81.74082222 210.97986799 84.52888293 208.84772919 87.4765625 206.48828125 C91.19058656 203.51632468 94.81293197 200.85086205 98.9140625 198.42578125 C100.88795858 197.15477852 100.88795858 197.15477852 102.1640625 195.23828125 C102.5782922 192.13345797 102.5782922 192.13345797 102.5390625 188.73828125 C102.70007059 182.86148607 102.70007059 182.86148607 104.7578125 180.09765625 C111.05986554 175.65168733 118.01417123 175.55272158 125.47412109 175.54980469 C130.47098131 175.52741094 132.86514235 174.90495516 137.1640625 172.23828125 C140.20354877 171.60243812 143.25926962 171.36177717 146.3515625 171.11328125 C147.19565674 171.0354541 148.03975098 170.95762695 148.90942383 170.87744141 C150.57458194 170.724504 152.24019234 170.57639869 153.90625 170.43359375 C156.72452386 170.18979843 159.53781963 169.9043581 162.3515625 169.61328125 C164.23875 169.42765625 164.23875 169.42765625 166.1640625 169.23828125 C166.1640625 173.85828125 166.1640625 178.47828125 166.1640625 183.23828125 C167.56140625 183.56441406 168.95875 183.89054688 170.3984375 184.2265625 C172.23709975 184.6674662 174.07563488 185.10890023 175.9140625 185.55078125 C176.83445312 185.76412109 177.75484375 185.97746094 178.703125 186.19726562 C180.03730469 186.52114258 180.03730469 186.52114258 181.3984375 186.8515625 C182.62385254 187.14220581 182.62385254 187.14220581 183.87402344 187.4387207 C186.1640625 188.23828125 186.1640625 188.23828125 188.27441406 189.82495117 C190.17117296 191.53775126 190.17117296 191.53775126 193.1640625 191.23828125 C193.1640625 188.59828125 193.1640625 185.95828125 193.1640625 183.23828125 C205.21180119 181.97194959 205.21180119 181.97194959 209.91015625 185.01953125 C210.73644531 185.75171875 211.56273437 186.48390625 212.4140625 187.23828125 C218.69326545 192.60157038 224.7774759 191.94724259 232.61328125 191.51953125 C233.78503906 191.42671875 234.95679688 191.33390625 236.1640625 191.23828125 C237.38977873 189.32595137 237.38977873 189.32595137 236.72680664 187.45068359 C236.34190063 186.3980835 236.34190063 186.3980835 235.94921875 185.32421875 C235.67529297 184.56367188 235.40136719 183.803125 235.11914062 183.01953125 C234.67731445 181.8284375 234.67731445 181.8284375 234.2265625 180.61328125 C233.93587891 179.81148437 233.64519531 179.0096875 233.34570312 178.18359375 C232.62523725 176.19935987 231.89551112 174.21849288 231.1640625 172.23828125 C230.28363281 172.22410156 229.40320313 172.20992187 228.49609375 172.1953125 C219.13769333 171.81100527 219.13769333 171.81100527 214.9765625 169.36328125 C212.37398438 164.87607759 211.76321586 160.34449866 211.1640625 155.23828125 C208.11958454 155.87606505 208.11958454 155.87606505 205.1640625 158.23828125 C203.70882098 162.1562392 202.89042185 166.12861653 202.1640625 170.23828125 C201.03818236 169.28098209 199.913391 168.3224023 198.7890625 167.36328125 C198.16257812 166.82960937 197.53609375 166.2959375 196.890625 165.74609375 C195.60569599 164.62396118 194.37034275 163.4445615 193.1640625 162.23828125 C193.16985405 160.75853918 193.21811602 159.27883292 193.2890625 157.80078125 C192.81126998 151.73989463 189.3529175 148.50858607 185.04052734 144.66699219 C181.71893109 141.97455348 179.21383917 140.54393447 174.9140625 140.55078125 C173.6765625 140.77765625 172.4390625 141.00453125 171.1640625 141.23828125 C171.56590284 144.6421053 172.38531347 147.29492927 174.1640625 150.23828125 C177.42567494 152.70011133 180.74633506 154.66553999 184.328125 156.609375 C187.1640625 158.23828125 187.1640625 158.23828125 188.1640625 160.23828125 C187.5040625 160.23828125 186.8440625 160.23828125 186.1640625 160.23828125 C185.8340625 162.87828125 185.5040625 165.51828125 185.1640625 168.23828125 C181.67224869 169.73477288 179.69049229 170.33951775 175.9140625 169.61328125 C172.94008653 168.12629326 172.19581332 167.33353372 171.1640625 164.23828125 C173.8040625 164.23828125 176.4440625 164.23828125 179.1640625 164.23828125 C179.4940625 163.24828125 179.8240625 162.25828125 180.1640625 161.23828125 C177.7093865 159.5659959 175.25066576 157.90031265 172.7890625 156.23828125 C172.09039062 155.76132813 171.39171875 155.284375 170.671875 154.79296875 C170.0015625 154.34179688 169.33125 153.890625 168.640625 153.42578125 C168.02268066 153.00683594 167.40473633 152.58789062 166.76806641 152.15625 C165.18277421 151.07271195 165.18277421 151.07271195 163.1640625 151.23828125 C162.8340625 149.58828125 162.5040625 147.93828125 162.1640625 146.23828125 C159.69606203 147.3900148 158.11622685 148.2861169 156.1640625 150.23828125 C154.82497236 150.07089498 153.49173006 149.85510641 152.1640625 149.61328125 C148.4127448 149.50419608 147.34808571 150.07440656 144.48828125 152.62109375 C139.6721224 158.08775136 136.27676052 163.68523279 133.1640625 170.23828125 C129.74741377 170.26736482 126.330797 170.28510816 122.9140625 170.30078125 C121.94597656 170.30916016 120.97789062 170.31753906 119.98046875 170.32617188 C118.57861328 170.33100586 118.57861328 170.33100586 117.1484375 170.3359375 C116.28959961 170.34117432 115.43076172 170.34641113 114.54589844 170.35180664 C112.27735506 170.24368111 110.33774535 169.87410548 108.1640625 169.23828125 C107.96836661 166.6761705 107.78225638 164.11395734 107.6015625 161.55078125 C107.54548828 160.82955078 107.48941406 160.10832031 107.43164062 159.36523438 C107.16451091 155.46514061 107.15518654 152.02717097 108.1640625 148.23828125 C116.31090464 147.54059385 124.04709619 146.95665499 132.1640625 148.23828125 C132.1640625 146.25828125 132.1640625 144.27828125 132.1640625 142.23828125 C130.8440625 142.23828125 129.5240625 142.23828125 128.1640625 142.23828125 C128.4940625 138.27828125 128.8240625 134.31828125 129.1640625 130.23828125 C131.63802083 130.04296875 134.11197917 129.84765625 136.5859375 129.65234375 C140.58705508 129.00974002 142.46600612 128.15830731 144.9453125 124.890625 C146.09232303 123.07886974 147.23815443 121.26636745 148.3828125 119.453125 C150.41947943 116.92069046 151.07348463 116.77131037 154.1640625 116.23828125 C156.92376658 116.16901157 159.65602292 116.14410765 162.4140625 116.17578125 C163.15914063 116.18029297 163.90421875 116.18480469 164.671875 116.18945312 C166.5026389 116.20118879 168.33336123 116.21912275 170.1640625 116.23828125 C169.5040625 112.93828125 168.8440625 109.63828125 168.1640625 106.23828125 C164.8640625 107.22828125 161.5640625 108.21828125 158.1640625 109.23828125 C157.9165625 108.12453125 157.6690625 107.01078125 157.4140625 105.86328125 C156.54622726 102.23894983 156.54622726 102.23894983 154.2265625 100.80078125 C152.03798541 100.10672255 152.03798541 100.10672255 149.1640625 100.23828125 C148.68431172 94.00152113 148.68431172 94.00152113 150.5390625 91.05078125 C153.78211844 88.81152834 157.10118218 87.61735673 160.82421875 86.36328125 C163.55952444 85.04814262 164.71178858 83.89157063 166.1640625 81.23828125 C165.07601382 77.97413522 164.5055746 77.45464915 161.875 75.453125 C161.18865479 74.92759033 160.50230957 74.40205566 159.79516602 73.8605957 C159.05065186 73.30460693 158.3061377 72.74861816 157.5390625 72.17578125 C156.77070068 71.59723389 156.00233887 71.01868652 155.21069336 70.42260742 C126.56124625 49.03066623 95.28412443 34.18431307 60.2890625 26.42578125 C59.41137207 26.23081055 58.53368164 26.03583984 57.62939453 25.83496094 C42.75244232 22.72060543 28.18748489 21.8606185 13.0390625 21.92578125 C11.68361328 21.92901398 11.68361328 21.92901398 10.30078125 21.93231201 C-3.27984438 21.98423581 -16.50601072 22.42379539 -29.8359375 25.23828125 Z M-97.8359375 71.23828125 C-97.8359375 72.22828125 -97.8359375 73.21828125 -97.8359375 74.23828125 C-94.95177867 75.68036066 -92.41872222 75.33223012 -89.2109375 75.30078125 C-87.42816406 75.28724609 -87.42816406 75.28724609 -85.609375 75.2734375 C-84.23652344 75.25603516 -84.23652344 75.25603516 -82.8359375 75.23828125 C-83.4959375 73.91828125 -84.1559375 72.59828125 -84.8359375 71.23828125 C-89.1259375 71.23828125 -93.4159375 71.23828125 -97.8359375 71.23828125 Z M-119.8359375 76.23828125 C-119.8359375 76.89828125 -119.8359375 77.55828125 -119.8359375 78.23828125 C-121.8159375 78.23828125 -123.7959375 78.23828125 -125.8359375 78.23828125 C-125.8359375 79.55828125 -125.8359375 80.87828125 -125.8359375 82.23828125 C-121.8759375 82.23828125 -117.9159375 82.23828125 -113.8359375 82.23828125 C-113.5059375 80.25828125 -113.1759375 78.27828125 -112.8359375 76.23828125 C-115.1459375 76.23828125 -117.4559375 76.23828125 -119.8359375 76.23828125 Z M-119.9609375 90.73828125 C-120.87101562 91.01671875 -121.78109375 91.29515625 -122.71875 91.58203125 C-123.41742188 91.79859375 -124.11609375 92.01515625 -124.8359375 92.23828125 C-124.5059375 92.89828125 -124.1759375 93.55828125 -123.8359375 94.23828125 C-118.3909375 93.74328125 -118.3909375 93.74328125 -112.8359375 93.23828125 C-112.8359375 91.91828125 -112.8359375 90.59828125 -112.8359375 89.23828125 C-115.41808811 89.23828125 -117.49400334 89.97922459 -119.9609375 90.73828125 Z M183.1640625 97.23828125 C183.1846875 97.91375 183.2053125 98.58921875 183.2265625 99.28515625 C183.16074816 102.13162652 182.99019506 104.50733528 182.1640625 107.23828125 C179.72510116 109.29051511 177.1953039 110.31302761 174.1640625 111.23828125 C174.1640625 112.22828125 174.1640625 113.21828125 174.1640625 114.23828125 C176.76933355 114.34620962 179.37014561 114.42553003 181.9765625 114.48828125 C182.71455078 114.52179688 183.45253906 114.5553125 184.21289062 114.58984375 C188.59950733 114.6817656 188.59950733 114.6817656 192.23828125 112.47265625 C193.30162152 110.34028779 193.30162152 110.34028779 193.1015625 108.28515625 C191.85878397 105.57175647 190.17624373 103.68730788 188.1640625 101.48828125 C187.4421875 100.6890625 186.7203125 99.88984375 185.9765625 99.06640625 C185.3784375 98.463125 184.7803125 97.85984375 184.1640625 97.23828125 C183.8340625 97.23828125 183.5040625 97.23828125 183.1640625 97.23828125 Z M-102.8359375 116.23828125 C-102.18008561 119.84820504 -102.18008561 119.84820504 -100.8359375 123.23828125 C-98.8559375 122.90828125 -96.8759375 122.57828125 -94.8359375 122.23828125 C-94.1759375 119.92828125 -93.5159375 117.61828125 -92.8359375 115.23828125 C-96.91368941 114.31151945 -99.25774787 113.89869572 -102.8359375 116.23828125 Z M-89.8359375 135.23828125 C-89.8359375 135.89828125 -89.8359375 136.55828125 -89.8359375 137.23828125 C-86.64769182 138.83240409 -83.20697088 138.3400286 -79.7109375 138.30078125 C-78.57978516 138.29401367 -78.57978516 138.29401367 -77.42578125 138.28710938 C-75.56246623 138.27531624 -73.69919195 138.25738067 -71.8359375 138.23828125 C-71.8359375 136.91828125 -71.8359375 135.59828125 -71.8359375 134.23828125 C-72.4959375 134.23828125 -73.1559375 134.23828125 -73.8359375 134.23828125 C-73.8359375 133.57828125 -73.8359375 132.91828125 -73.8359375 132.23828125 C-82.43170924 131.52676877 -82.43170924 131.52676877 -89.8359375 135.23828125 Z M-188.8359375 135.23828125 C-187.8359375 137.23828125 -187.8359375 137.23828125 -187.8359375 137.23828125 Z M-68.8359375 135.23828125 C-68.8359375 136.22828125 -68.8359375 137.21828125 -68.8359375 138.23828125 C-68.1759375 138.23828125 -67.5159375 138.23828125 -66.8359375 138.23828125 C-67.1659375 137.24828125 -67.4959375 136.25828125 -67.8359375 135.23828125 C-68.1659375 135.23828125 -68.4959375 135.23828125 -68.8359375 135.23828125 Z M-88.7734375 143.92578125 C-90.81151065 147.19905026 -91.3849025 148.50531928 -90.8359375 152.23828125 C-89.5159375 152.56828125 -88.1959375 152.89828125 -86.8359375 153.23828125 C-85.49975853 151.42787804 -84.16706366 149.61490285 -82.8359375 147.80078125 C-82.0934375 146.79144531 -81.3509375 145.78210938 -80.5859375 144.7421875 C-78.74046059 142.61081252 -78.74046059 142.61081252 -78.8359375 141.23828125 C-83.54528835 140.68423997 -85.19342109 140.65044709 -88.7734375 143.92578125 Z M-72.8359375 141.23828125 C-72.8359375 143.54828125 -72.8359375 145.85828125 -72.8359375 148.23828125 C-70.8559375 147.57828125 -68.8759375 146.91828125 -66.8359375 146.23828125 C-66.5059375 144.58828125 -66.1759375 142.93828125 -65.8359375 141.23828125 C-68.1459375 141.23828125 -70.4559375 141.23828125 -72.8359375 141.23828125 Z M-58.8359375 141.23828125 C-58.8359375 141.89828125 -58.8359375 142.55828125 -58.8359375 143.23828125 C-57.8459375 142.90828125 -56.8559375 142.57828125 -55.8359375 142.23828125 C-56.8259375 141.90828125 -57.8159375 141.57828125 -58.8359375 141.23828125 Z M-62.8359375 146.23828125 C-62.5059375 148.21828125 -62.1759375 150.19828125 -61.8359375 152.23828125 C-59.1959375 152.23828125 -56.5559375 152.23828125 -53.8359375 152.23828125 C-54.1659375 150.91828125 -54.4959375 149.59828125 -54.8359375 148.23828125 C-57.4759375 147.57828125 -60.1159375 146.91828125 -62.8359375 146.23828125 Z M-76.8359375 154.23828125 C-76.8359375 155.22828125 -76.8359375 156.21828125 -76.8359375 157.23828125 C-73.41937726 157.40505407 -73.41937726 157.40505407 -69.8359375 157.23828125 C-69.1759375 156.57828125 -68.5159375 155.91828125 -67.8359375 155.23828125 C-67.8359375 153.91828125 -67.8359375 152.59828125 -67.8359375 151.23828125 C-72.10290148 151.23828125 -73.50290359 151.73850582 -76.8359375 154.23828125 Z M220.1640625 151.23828125 C220.1640625 154.53828125 220.1640625 157.83828125 220.1640625 161.23828125 C221.8140625 160.90828125 223.4640625 160.57828125 225.1640625 160.23828125 C224.1740625 157.26828125 223.1840625 154.29828125 222.1640625 151.23828125 C221.5040625 151.23828125 220.8440625 151.23828125 220.1640625 151.23828125 Z " fill="#000000" transform="translate(243.8359375,-0.23828125)"/>
<path d="M0 0 C0.06316406 0.61746094 0.12632812 1.23492187 0.19140625 1.87109375 C1.22622573 9.02768739 3.81435934 13.92376104 9 19 C11.1144341 20.24133613 11.1144341 20.24133613 13 21 C11.79618552 23.49361571 10.54571278 25.68143083 9 28 C6.04935852 28.2208564 3.31631769 28.28060989 0.375 28.1875 C-0.82769531 28.16719727 -0.82769531 28.16719727 -2.0546875 28.14648438 C-4.03674378 28.11109051 -6.01845551 28.05728234 -8 28 C-8 25.03 -8 22.06 -8 19 C-6.35 18.67 -4.7 18.34 -3 18 C-2.67 17.01 -2.34 16.02 -2 15 C-2.7425 14.731875 -3.485 14.46375 -4.25 14.1875 C-6.99053046 13.00408912 -8.92619135 12.15061637 -11 10 C-11.51020728 5.91834173 -11.31361802 4.47042703 -9 1 C-5.84871861 0.08778697 -3.31642594 0 0 0 Z " fill="#000000" transform="translate(375,99)"/>
<path d="M0 0 C0.66 0.33 1.32 0.66 2 1 C2.5625 4.125 2.5625 4.125 2 8 C-1.09885837 11.17460824 -4.73712537 13.610556 -9.15625 14.37109375 C-11.0625 14.375 -11.0625 14.375 -14 14 C-14.54998918 8.36261092 -13.11588996 5.5402968 -10 1 C-6.49852959 -0.1671568 -3.67329964 -0.13357453 0 0 Z " fill="#000000" transform="translate(365,110)"/>
<path d="M0 0 C1.98 0 3.96 0 6 0 C6.33 0.66 6.66 1.32 7 2 C6.67 2.66 6.34 3.32 6 4 C5.01 4.33 4.02 4.66 3 5 C1.7934375 6.2684375 1.7934375 6.2684375 0.5625 7.5625 C-2 10 -2 10 -6 10 C-6 9.34 -6 8.68 -6 8 C-6.66 8 -7.32 8 -8 8 C-8 6.68 -8 5.36 -8 4 C-5.69 4 -3.38 4 -1 4 C-0.67 2.68 -0.34 1.36 0 0 Z " fill="#000000" transform="translate(236,138)"/>
<path d="M0 0 C1.9375 0.3125 1.9375 0.3125 4 1 C4.33 1.99 4.66 2.98 5 4 C3.75 5.5 3.75 5.5 2 7 C0.68 7 -0.64 7 -2 7 C-1.34 4.69 -0.68 2.38 0 0 Z " fill="#000000" transform="translate(220,142)"/>
</svg>
